<?xml version="1.0" encoding="UTF-8" standalone="no"?>
<!-- Created with Inkscape (http://www.inkscape.org/) -->

<svg
   xmlns:dc="http://purl.org/dc/elements/1.1/"
   xmlns:cc="http://creativecommons.org/ns#"
   xmlns:rdf="http://www.w3.org/1999/02/22-rdf-syntax-ns#"
   xmlns:svg="http://www.w3.org/2000/svg"
   xmlns="http://www.w3.org/2000/svg"
   xmlns:sodipodi="http://sodipodi.sourceforge.net/DTD/sodipodi-0.dtd"
   xmlns:inkscape="http://www.inkscape.org/namespaces/inkscape"
   width="123.12196mm"
   height="34.304798mm"
   viewBox="0 0 123.12195 34.304798"
   version="1.1"
   id="svg8"
   inkscape:version="0.92.5 (2060ec1f9f, 2020-04-08)"
   sodipodi:docname="vwikis.svg">
  <defs
     id="defs2" />
  <sodipodi:namedview
     id="base"
     pagecolor="#ffffff"
     bordercolor="#666666"
     borderopacity="1.0"
     inkscape:pageopacity="0.0"
     inkscape:pageshadow="2"
     inkscape:zoom="3.6961997"
     inkscape:cx="232.67141"
     inkscape:cy="64.827965"
     inkscape:document-units="mm"
     inkscape:current-layer="layer1"
     showgrid="false"
     inkscape:window-width="1920"
     inkscape:window-height="1015"
     inkscape:window-x="0"
     inkscape:window-y="0"
     inkscape:window-maximized="1"
     fit-margin-top="0"
     fit-margin-left="0"
     fit-margin-right="0"
     fit-margin-bottom="0" />
  <metadata
     id="metadata5">
    <rdf:RDF>
      <cc:Work
         rdf:about="">
        <dc:format>image/svg+xml</dc:format>
        <dc:type
           rdf:resource="http://purl.org/dc/dcmitype/StillImage" />
        <dc:title></dc:title>
      </cc:Work>
    </rdf:RDF>
  </metadata>
  <g
     inkscape:label="Layer 1"
     inkscape:groupmode="layer"
     id="layer1"
     transform="translate(-70.124423,-120.9108)">
    <g
       id="g58">
      <path
         sodipodi:nodetypes="scccssccsccssccss"
         d="m 81.207513,154.97571 c -0.287873,0 -0.479788,-0.12794 -0.575745,-0.38383 l -10.459365,-32.67352 -0.04798,-0.19192 c 0,-0.2239 0.143936,-0.33585 0.431808,-0.33585 h 2.590852 c 0.287873,0 0.479788,0.12794 0.575745,0.38383 l 8.73213,28.11554 c 0.03199,0.064 0.07997,0.096 0.143936,0.096 0.06397,0 0.111952,-0.032 0.143936,-0.096 l 3.969631,-17.00304 c 0.09596,-0.25588 0.287872,-0.38383 0.575744,-0.38383 h 2.013706 c 0.351845,0 0.479788,0.17593 0.38383,0.52777 l -5.263655,21.56102 c -0.09596,0.25589 -0.287872,0.38383 -0.575745,0.38383 z"
         style="font-style:normal;font-variant:normal;font-weight:normal;font-stretch:normal;font-size:47.97873688px;line-height:1.25;font-family:Barlow;-inkscape-font-specification:Barlow;letter-spacing:0px;word-spacing:0px;fill:#000000;fill-opacity:1;stroke:none;stroke-width:2.99867105"
         id="path14"
         inkscape:connector-curvature="0" />
      <path
         d="m 92.971009,154.97571 q -0.38383,0 -0.527767,-0.38383 l -9.211917,-32.67352 -0.04798,-0.14394 q 0,-0.38383 0.479788,-0.38383 h 2.542873 q 0.431808,0 0.527766,0.38383 l 7.292768,26.29235 q 0.04798,0.096 0.09596,0.096 0.09596,0 0.143936,-0.096 l 6.765004,-26.24437 q 0.096,-0.43181 0.52776,-0.43181 h 2.59085 q 0.43181,0 0.52777,0.43181 l 7.05287,26.24437 q 0.048,0.096 0.096,0.096 0.096,0 0.14394,-0.096 l 7.29277,-26.29235 q 0.0959,-0.38383 0.52776,-0.38383 h 2.44692 q 0.23989,0 0.33585,0.14394 0.14394,0.14393 0.096,0.38383 l -9.06798,32.67352 q -0.096,0.38383 -0.52777,0.38383 h -2.54287 q -0.43181,0 -0.52777,-0.43181 l -7.0049,-26.86809 q -0.048,-0.096 -0.14393,-0.096 -0.048,0 -0.096,0.096 l -6.860956,26.86809 q -0.04798,0.43181 -0.527767,0.43181 z"
         style="font-style:normal;font-variant:normal;font-weight:normal;font-stretch:normal;font-size:47.97873688px;line-height:1.25;font-family:Barlow;-inkscape-font-specification:Barlow;letter-spacing:0px;word-spacing:0px;fill:#000000;fill-opacity:1;stroke:none;stroke-width:2.99867105"
         id="path16"
         inkscape:connector-curvature="0" />
      <path
         d="m 130.15445,126.28442 q -1.15149,0 -1.91915,-0.76766 -0.76765,-0.76766 -0.76765,-1.91915 0,-1.19946 0.76765,-1.91915 0.76766,-0.76766 1.91915,-0.76766 1.15149,0 1.91915,0.76766 0.76766,0.71969 0.76766,1.91915 0,1.15149 -0.76766,1.91915 -0.76766,0.76766 -1.91915,0.76766 z m -1.3434,28.64331 q -0.47979,0 -0.47979,-0.47979 v -23.31766 q 0,-0.47979 0.47979,-0.47979 h 2.44692 q 0.47978,0 0.47978,0.47979 v 23.31766 q 0,0.47979 -0.47978,0.47979 z"
         style="font-style:normal;font-variant:normal;font-weight:normal;font-stretch:normal;font-size:47.97873688px;line-height:1.25;font-family:Barlow;-inkscape-font-specification:Barlow;letter-spacing:0px;word-spacing:0px;fill:#000000;fill-opacity:1;stroke:none;stroke-width:2.99867105"
         id="path18"
         inkscape:connector-curvature="0" />
      <path
         d="m 140.5658,154.97571 q -0.47979,0 -0.47979,-0.47979 v -32.62554 q 0,-0.47979 0.47979,-0.47979 h 2.44691 q 0.47979,0 0.47979,0.47979 v 19.6233 q 0,0.096 0.048,0.14394 0.096,0.048 0.19191,-0.048 l 10.1715,-10.65128 q 0.23989,-0.23989 0.57574,-0.23989 h 2.87873 q 0.28787,0 0.38383,0.19191 0.096,0.19192 -0.096,0.38383 l -6.14128,6.81298 q -0.096,0.096 -0.048,0.2399 l 7.34075,16.07287 0.048,0.19192 q 0,0.38383 -0.43181,0.38383 h -2.59085 q -0.38383,0 -0.52777,-0.38383 l -6.18926,-14.00979 q -0.0959,-0.19192 -0.23989,-0.048 l -5.27766,5.56553 q -0.096,0.096 -0.096,0.2399 v 8.15638 q 0,0.47979 -0.47979,0.47979 z"
         style="font-style:normal;font-variant:normal;font-weight:normal;font-stretch:normal;font-size:47.97873688px;line-height:1.25;font-family:Barlow;-inkscape-font-specification:Barlow;letter-spacing:0px;word-spacing:0px;fill:#000000;fill-opacity:1;stroke:none;stroke-width:2.99867105"
         id="path20"
         inkscape:connector-curvature="0" />
      <path
         d="m 166.42631,126.28442 q -1.15149,0 -1.91915,-0.76766 -0.76766,-0.76766 -0.76766,-1.91915 0,-1.19946 0.76766,-1.91915 0.76766,-0.76766 1.91915,-0.76766 1.15149,0 1.91915,0.76766 0.76766,0.71969 0.76766,1.91915 0,1.15149 -0.76766,1.91915 -0.76766,0.76766 -1.91915,0.76766 z m -1.3434,28.64331 q -0.47979,0 -0.47979,-0.47979 v -23.31766 q 0,-0.47979 0.47979,-0.47979 h 2.44691 q 0.47979,0 0.47979,0.47979 v 23.31766 q 0,0.47979 -0.47979,0.47979 z"
         style="font-style:normal;font-variant:normal;font-weight:normal;font-stretch:normal;font-size:47.97873688px;line-height:1.25;font-family:Barlow;-inkscape-font-specification:Barlow;letter-spacing:0px;word-spacing:0px;fill:#000000;fill-opacity:1;stroke:none;stroke-width:2.99867105"
         id="path22"
         inkscape:connector-curvature="0" />
      <path
         d="m 184.32234,155.2156 q -2.68681,0 -4.79788,-0.86362 -2.06308,-0.86361 -3.21457,-2.30297 -1.10351,-1.43937 -1.10351,-3.21458 v -0.57575 q 0,-0.47978 0.47979,-0.47978 h 2.30298 q 0.47978,0 0.47978,0.47978 v 0.38383 q 0,1.5833 1.63128,2.78277 1.67926,1.15149 4.17415,1.15149 2.49489,0 4.03021,-1.10351 1.53532,-1.15149 1.53532,-2.87872 0,-1.19947 -0.81564,-1.96713 -0.76765,-0.76766 -1.87117,-1.19947 -1.05553,-0.43181 -3.31053,-1.10351 -2.68681,-0.76766 -4.41404,-1.53532 -1.72724,-0.76766 -2.92671,-2.11107 -1.15149,-1.39138 -1.15149,-3.50244 0,-3.07064 2.39894,-4.89383 2.39894,-1.8232 6.33319,-1.8232 2.63884,0 4.65394,0.86362 2.06309,0.86362 3.1666,2.39894 1.10351,1.48734 1.10351,3.35851 v 0.14394 q 0,0.47978 -0.47979,0.47978 h -2.255 q -0.47979,0 -0.47979,-0.47978 v -0.14394 q 0,-1.63128 -1.58329,-2.73479 -1.53532,-1.10351 -4.17415,-1.10351 -2.44692,0 -3.93426,1.00755 -1.48734,0.95958 -1.48734,2.68681 0,1.63128 1.43936,2.4949 1.43936,0.86361 4.46202,1.72723 2.78277,0.81564 4.51,1.53532 1.72724,0.71968 2.97469,2.11107 1.24744,1.3434 1.24744,3.55042 0,3.11862 -2.44691,4.98979 -2.44692,1.87117 -6.47713,1.87117 z"
         style="font-style:normal;font-variant:normal;font-weight:normal;font-stretch:normal;font-size:47.97873688px;line-height:1.25;font-family:Barlow;-inkscape-font-specification:Barlow;letter-spacing:0px;word-spacing:0px;fill:#000000;fill-opacity:1;stroke:none;stroke-width:2.99867105"
         id="path24"
         inkscape:connector-curvature="0" />
    </g>
  </g>
</svg>
